<svg version="1.1" id="Layer_1" xmlns="http://www.w3.org/2000/svg" x="0" y="0" viewBox="0 0 260 260" style="enable-background:new 0 0 260 260" xml:space="preserve"><style>.st0{fill:#fff}</style><path d="M0 0h260v260H0z"/><path class="st0" d="M0 1300V0h2600v2600H0V1300zm1741 778c17-41 14-98-5-137-23-44-20-64 15-97 36-34 54-66 62-112 6-27 2-36-21-55-56-46-96-93-118-141s-23-48-30-22c-3 14-4 38-1 52l4 25-23-22c-13-13-32-40-41-61-21-48-34-37-42 38l-6 57-32-27c-18-15-33-34-33-42 0-9-4-12-10-9-13 8-13 71 1 97 6 11 8 22 5 26-9 8-76-25-76-38 0-6 11-3 25 6l25 16v-58c0-81 11-93 41-47 32 49 49 53 49 14 0-18 7-48 15-68l15-36 26 51c28 56 44 66 44 29 0-13 6-32 14-43 14-19 15-19 22 1 30 83 66 134 127 177 26 18 30 19 24 5-4-10-90-164-193-343l-187-326-53 53c-30 29-54 56-54 60 0 3 18 9 41 13 48 8 99 32 99 47 0 7-7 8-17 4-64-28-124-44-163-45-59 0-120-18-127-36-8-21-23-17-23 6 0 22-10 26-27 9-8-8-26 15-66 83-30 51-54 94-52 96s12-1 23-7c26-14 135-15 127-1-4 6 17 10 57 10 61 0 156 32 171 57 4 6-15-1-40-14-26-12-57-23-71-23-24 0-24 1-21 78 3 62 10 90 36 142 18 36 46 81 62 100l30 35 1-44c0-54 14-46 15 9 1 34 10 48 66 107 59 61 90 116 74 131-3 3-5-2-5-11 0-44-94-62-153-29l-32 17 53 3c43 3 52 6 52 22 0 32-67 65-133 64l-58-1 23 25c13 13 38 31 57 39 31 13 35 13 53-6 10-12 23-21 28-21 6 0 1 9-11 21-20 20-20 22-3 40 10 11 30 19 49 19 17 0 36 5 43 12 11 11 42 5 101-19 8-3 11-1 7 5-7 12 13 62 26 62s9-68-4-73c-8-3-5-6 5-6 14-1 17-6 11-23-4-15 8-5 35 25 22 27 41 57 41 68 0 29 16 23 31-13zm-692-178c38 0 69-26 77-64 4-24 10-33 20-29 12 4 11-1-1-31-18-42-19-68-5-118 11-38 55-99 69-95 5 1 17-9 28-22 19-23 19-28 6-59-8-19-15-64-16-99 0-34-3-63-5-63-3 0-30 27-61 60-42 45-63 60-84 60-32 0-36 19-6 27 21 6 21 6-2 19-13 7-34 13-46 14-26 0-32 27-8 36 20 8 0 34-26 34-10 0-21 5-24 10-10 16-72 12-90-6-21-22-31-10-16 18 7 13 20 38 30 57 10 18 27 39 39 45 18 10 19 13 7 29-7 11-30 24-50 31-29 10-33 15-22 24 7 6 29 14 48 17 19 2 48 8 66 12l32 8-16 32c-8 18-24 35-34 38-37 12-20 27 24 21 23-3 53-6 66-6zm257-80c-3-11-8-29-11-39-4-14 0-21 15-26 11-3 20-10 20-13 0-4-20-30-45-57l-45-50 14 41c13 39 13 42-5 50-18 9-17 12 16 62 38 55 50 65 41 32zm-359-661c188-326 346-595 350-596 5-1 163 268 353 597 190 330 350 598 355 597 6-2 10-8 10-13 0-14-708-1243-716-1244-8 0-710 1215-717 1242-18 70 58-51 365-583zm461-162 21-22-60-105c-33-58-64-108-68-112-3-4-21 19-40 52-29 54-31 64-22 93 17 49 92 116 132 117 8 0 25-10 37-23z" transform="matrix(.1 0 0 -.1 0 260)"/><path class="st0" d="M1535 1990c3-5 13-10 21-10s12 5 9 10c-3 6-13 10-21 10s-12-4-9-10z" transform="matrix(.1 0 0 -.1 0 260)"/></svg>